<?xml version="1.0" encoding="UTF-8"?>
<svg width="465px" height="206px" viewBox="0 0 465 206" version="1.1" xmlns="http://www.w3.org/2000/svg" xmlns:xlink="http://www.w3.org/1999/xlink">
    <title>Group 3logo</title>
    <g id="Logo" stroke="none" stroke-width="1" fill="none" fill-rule="evenodd">
        <g id="Facebook-Profile-Picture" transform="translate(-127.000000, -391.000000)">
            <g id="Group-3" transform="translate(127.000000, 391.000000)">
                <g id="Group">
                    <path d="M8.26200017,7.46421756 C40.2939305,65.1881328 84.1870436,107.05934 139.94134,133.077838 C223.572784,172.105586 263.625141,154.209961 281.628743,148.731952 C299.632346,143.253943 353.937657,121.256216 383.543689,96.1065252 C403.281044,79.3400649 426.903151,48.8905565 454.41001,4.75800012 L433.292728,7.46421756 L360.316924,58.5660977 C308.733091,86.9089766 265.739452,99.4224524 231.336005,96.1065252 C179.730835,91.1326345 160.929588,92.5042478 88.0382942,49.9842327 C39.4440983,21.6375559 18.8435179,7.92142202 26.2365531,8.83583095 L8.26200017,7.46421756 Z" id="Path-7-Copy-5" fill="#A4F3E6"></path>
                    <path d="M5.50800012,12.2880116 C5.50800012,12.2880116 5.50800012,18.7123415 5.50800012,31.5610013 C18.6816148,83.4295816 48.7740386,126.627474 95.7852714,161.154677 C122.417849,180.714863 153.200494,193.192353 188.133204,198.587147 C205.953024,201.339132 235.112606,201.320211 275.611949,198.530387 C332.702542,188.520512 378.432289,163.522559 412.801191,123.536528 C447.170093,83.5504973 463.270356,45.3223075 461.10198,8.85195876 C460.55101,5.33531425 459.298126,4.08422547 457.343327,5.09869241 C387.871053,123.536528 281.955792,166.127566 194.041216,147.446416 C116.645678,135.539466 62.4582837,97.093942 5.50800012,12.2880116 Z" id="Path-6-Copy-5" fill="#4BCBB6"></path>
                    <path d="M5.75803351,19.8290881 C1.39898316,15.1061377 1.78388463,23.2414253 6.91273792,44.2349508 C20.3776451,93.0353244 54.5015467,135.029398 109.284443,170.217173 C191.458787,222.998834 339.021525,208.384719 402.084008,133.621758 C334.803627,176.825624 262.950896,191.238999 186.525818,176.861881 L122.807442,154.825129 L80.6765465,124.156671 C57.3888713,110.037888 32.4160337,75.2620273 5.75803351,19.8290881 Z" id="Path-8-Copy-5" fill="#44615D"></path>
                    <g id="BananaGroup-Copy-5" stroke="#000000" stroke-width="6.85746001">
                        <path d="M231.814842,97.8283454 C154.164909,97.8283454 97.9386423,57.7323141 58.8109073,29.7092383 C36.7084017,13.8795413 20.3189495,1.01955756 8.85392776,4.76750185 C6.92974902,5.39652069 5.69251581,7.15904183 4.83505285,9.50203041 C3.64032235,12.7665911 3.23092054,17.1465862 3.51136032,22.367247 C4.09007418,33.1405717 7.66049156,47.2840508 14.3132679,62.9042494 C25.0012823,87.9988715 43.6434755,116.835351 70.8964991,141.72067 C107.868252,175.48037 160.700088,201.937574 231.042338,201.937574 C302.470643,201.937574 356.285087,175.220883 393.799899,141.200739 C421.233151,116.323013 439.955436,87.5568621 450.470822,62.5204152 C456.849488,47.3332309 460.207817,33.5470835 460.585028,22.9023394 C460.766416,17.7836275 460.267365,13.4345098 459.00142,10.1009 C458.017395,7.50967138 456.58385,5.56011801 454.486716,4.658369 C441.951139,-0.731817592 424.464798,13.2646455 401.075555,30.2030323 C362.193457,58.3612767 307.445026,97.8283454 231.814842,97.8283454 Z" id="Oval"></path>
                        <path d="M8.26200017,8.45529941 C36.5654991,61.1627821 80.4586123,102.739427 139.94134,133.185233" id="Path" stroke-linecap="round"></path>
                        <path d="M454.41001,7.07829938 C422.249844,55.4360471 392.125963,89.6377597 364.038367,109.683437" id="Path-2" stroke-linecap="round"></path>
                        <path d="M170.748004,143.401302 C220.53046,156.774303 259.101141,157.952803 286.460047,146.936802" id="Path-3" stroke-linecap="round"></path>
                        <path d="M5.42999184,15.6881481 C38.4597709,100.396296 98.6147749,153.983347 185.895004,176.449303" id="Path-4" stroke-linecap="round"></path>
                        <path d="M15.1470003,8.45529941 C44.0436955,39.7355056 58.5934015,60.5252977 108.783002,91.0753011" id="Path-5" stroke-linecap="round"></path>
                    </g>
                </g>
                <g id="Group-2" transform="translate(326.991045, 130.526102) rotate(1.000000) translate(-326.991045, -130.526102) translate(290.991045, 104.026102)">
                    <rect id="Rectangle-Copy" fill="#535353" transform="translate(36.867096, 26.958835) rotate(-25.000000) translate(-36.867096, -26.958835) " x="5.0170945" y="13.9588345" width="63.7000035" height="26.0000014" rx="10.4000006"></rect>
                    <rect id="Rectangle" fill="#000000" transform="translate(34.450002, 26.000001) rotate(-25.000000) translate(-34.450002, -26.000001) " x="2.60000014" y="13.0000007" width="63.7000035" height="26.0000014" rx="10.4000006"></rect>
                    <path d="M14.7787462,31.6427608 C15.3794849,31.6427608 15.9155287,31.55265 16.3868775,31.3724284 C16.8582264,31.1922068 17.2556381,30.9357375 17.5791128,30.6030207 C17.9025875,30.2703039 18.1498146,29.8682711 18.3207941,29.3969222 C18.4917736,28.9255734 18.5772633,28.3987717 18.5772633,27.8165173 C18.5772633,27.243505 18.5079473,26.7236349 18.3693153,26.2569072 C18.2306833,25.7901794 18.0273563,25.3904571 17.7593344,25.0577403 C17.4913125,24.7250235 17.1585957,24.4685542 16.761184,24.2883326 C16.3637722,24.108111 15.9062866,24.0180002 15.388727,24.0180002 C15.1022209,24.0180002 14.834199,24.0457266 14.5846614,24.1011794 C14.3351238,24.1566322 14.0948283,24.2351904 13.8637749,24.3368538 L13.8637749,24.3368538 L13.8637749,20.7046951 L11.798158,21.037412 L11.798158,31.2268648 C11.9830006,31.2823176 12.1955697,31.3354598 12.4358652,31.3862916 C12.6761607,31.4371233 12.9280089,31.4810234 13.1914097,31.517992 C13.4548105,31.5549605 13.7228324,31.5849975 13.9954753,31.6081028 C14.2681183,31.6312081 14.5292086,31.6427608 14.7787462,31.6427608 Z M14.764883,29.8821343 C14.5800403,29.8821343 14.4090608,29.8752027 14.2519446,29.8613395 C14.0948283,29.8474763 13.9654384,29.8313025 13.8637749,29.8128183 L13.8637749,29.8128183 L13.8637749,26.0558908 C13.9931648,25.9727116 14.1618338,25.9033955 14.3697818,25.8479427 C14.5777298,25.7924899 14.7879883,25.7647635 15.0005574,25.7647635 C15.9802236,25.7647635 16.4700567,26.4301972 16.4700567,27.7610645 C16.4700567,28.3987717 16.3268037,28.9117102 16.0402975,29.2998798 C15.7537913,29.6880494 15.3286532,29.8821343 14.764883,29.8821343 Z M22.8194028,31.6150344 C23.5680157,31.6150344 24.2057229,31.5711343 24.7325246,31.483334 C25.2593262,31.3955337 25.6706012,31.3192861 25.9663495,31.2545912 L25.9663495,31.2545912 L25.9663495,26.9569988 C25.9663495,26.5041343 25.9155177,26.0928593 25.8138543,25.7231739 C25.7121908,25.3534886 25.5389008,25.039256 25.2939842,24.7804763 C25.0490677,24.5216965 24.7232824,24.3229906 24.3166285,24.1843586 C23.9099746,24.0457266 23.4016573,23.9764106 22.7916764,23.9764106 C22.5513809,23.9764106 22.313396,23.9879633 22.0777216,24.0110686 C21.8420471,24.0341739 21.6179254,24.0619003 21.4053563,24.0942478 C21.1927872,24.1265953 20.9963919,24.1635638 20.8161703,24.2051534 C20.6359487,24.246743 20.485764,24.2860221 20.3656162,24.3229906 L20.3656162,24.3229906 L20.6290171,25.9865748 C20.8785547,25.8941534 21.174303,25.8225269 21.5162619,25.7716951 C21.8582209,25.7208634 22.2048009,25.6954475 22.556002,25.6954475 C23.0828036,25.6954475 23.452489,25.8017321 23.6650581,26.0143012 C23.8776272,26.2268702 23.9839117,26.5087553 23.9839117,26.8599564 L23.9839117,26.8599564 L23.9839117,27.0540412 C23.8545218,27.0170727 23.6858529,26.9870358 23.4779049,26.9639304 C23.2699569,26.9408251 23.0319719,26.9292724 22.76395,26.9292724 C22.3665383,26.9292724 21.9829897,26.9685515 21.6133043,27.0471096 C21.243619,27.1256678 20.9155232,27.2527471 20.6290171,27.4283477 C20.3425109,27.6039482 20.1137681,27.8396226 19.9427886,28.1353709 C19.7718091,28.4311192 19.6863194,28.7915624 19.6863194,29.2167006 C19.6863194,29.660323 19.7602565,30.0346295 19.9081306,30.3396199 C20.0560047,30.6446103 20.2685738,30.8918374 20.5458378,31.0813012 C20.8231019,31.2707649 21.1535082,31.4070864 21.5370567,31.4902656 C21.9206053,31.5734448 22.348054,31.6150344 22.8194028,31.6150344 Z M22.9580348,30.0207663 C22.5791073,30.0207663 22.2810485,29.9583819 22.0638584,29.8336131 C21.8466682,29.7088442 21.7380731,29.4847225 21.7380731,29.1612478 C21.7380731,28.9948894 21.7750417,28.8562574 21.8489787,28.7453518 C21.9229158,28.6344462 22.0245793,28.5466459 22.1539692,28.4819509 C22.283359,28.417256 22.4335437,28.3733559 22.6045232,28.3502505 C22.7755027,28.3271452 22.9580348,28.3155925 23.1521196,28.3155925 C23.2907517,28.3155925 23.4432469,28.3248347 23.6096053,28.3433189 C23.7759637,28.3618032 23.9007325,28.3802875 23.9839117,28.3987717 L23.9839117,28.3987717 L23.9839117,29.9653135 C23.8730061,29.9837977 23.725132,29.9976609 23.5402893,30.0069031 C23.3554466,30.0161452 23.1613618,30.0207663 22.9580348,30.0207663 Z M29.9034986,31.4625392 L29.9034986,25.8340795 C30.0328885,25.8155953 30.1807626,25.7994215 30.347121,25.7855583 C30.5134794,25.7716951 30.6705957,25.7647635 30.8184698,25.7647635 C31.2990608,25.7647635 31.6271566,25.9033955 31.8027571,26.1806596 C31.9783577,26.4579236 32.0661579,26.9292724 32.0661579,27.5947061 L32.0661579,27.5947061 L32.0661579,31.4625392 L34.1317749,31.4625392 L34.1317749,27.3451685 C34.1317749,26.8460932 34.0809432,26.3932287 33.9792797,25.9865748 C33.8776162,25.5799209 33.7066367,25.2287198 33.4663412,24.9329715 C33.2260458,24.6372232 32.9002605,24.4084804 32.4889856,24.246743 C32.0777106,24.0850057 31.5624616,24.004137 30.9432387,24.004137 C30.3332578,24.004137 29.7510034,24.0480371 29.1964753,24.1358374 C28.6419473,24.2236377 28.1890827,24.3183696 27.8378816,24.420033 L27.8378816,24.420033 L27.8378816,31.4625392 L29.9034986,31.4625392 Z M38.6511785,31.6150344 C39.3997913,31.6150344 40.0374986,31.5711343 40.5643002,31.483334 C41.0911018,31.3955337 41.5023768,31.3192861 41.7981251,31.2545912 L41.7981251,31.2545912 L41.7981251,26.9569988 C41.7981251,26.5041343 41.7472934,26.0928593 41.6456299,25.7231739 C41.5439664,25.3534886 41.3706764,25.039256 41.1257598,24.7804763 C40.8808433,24.5216965 40.5550581,24.3229906 40.1484042,24.1843586 C39.7417503,24.0457266 39.2334329,23.9764106 38.6234521,23.9764106 C38.3831566,23.9764106 38.1451716,23.9879633 37.9094972,24.0110686 C37.6738228,24.0341739 37.449701,24.0619003 37.2371319,24.0942478 C37.0245629,24.1265953 36.8281675,24.1635638 36.6479459,24.2051534 C36.4677243,24.246743 36.3175396,24.2860221 36.1973919,24.3229906 L36.1973919,24.3229906 L36.4607927,25.9865748 C36.7103303,25.8941534 37.0060786,25.8225269 37.3480376,25.7716951 C37.6899965,25.7208634 38.0365765,25.6954475 38.3877776,25.6954475 C38.9145793,25.6954475 39.2842646,25.8017321 39.4968337,26.0143012 C39.7094028,26.2268702 39.8156873,26.5087553 39.8156873,26.8599564 L39.8156873,26.8599564 L39.8156873,27.0540412 C39.6862975,27.0170727 39.5176285,26.9870358 39.3096805,26.9639304 C39.1017325,26.9408251 38.8637475,26.9292724 38.5957256,26.9292724 C38.1983139,26.9292724 37.8147653,26.9685515 37.44508,27.0471096 C37.0753946,27.1256678 36.7472988,27.2527471 36.4607927,27.4283477 C36.1742865,27.6039482 35.9455437,27.8396226 35.7745642,28.1353709 C35.6035847,28.4311192 35.518095,28.7915624 35.518095,29.2167006 C35.518095,29.660323 35.5920321,30.0346295 35.7399062,30.3396199 C35.8877804,30.6446103 36.1003495,30.8918374 36.3776135,31.0813012 C36.6548775,31.2707649 36.9852838,31.4070864 37.3688324,31.4902656 C37.7523809,31.5734448 38.1798296,31.6150344 38.6511785,31.6150344 Z M38.7898105,30.0207663 C38.410883,30.0207663 38.1128241,29.9583819 37.895634,29.8336131 C37.6784438,29.7088442 37.5698488,29.4847225 37.5698488,29.1612478 C37.5698488,28.9948894 37.6068173,28.8562574 37.6807544,28.7453518 C37.7546914,28.6344462 37.8563549,28.5466459 37.9857448,28.4819509 C38.1151347,28.417256 38.2653194,28.3733559 38.4362988,28.3502505 C38.6072783,28.3271452 38.7898105,28.3155925 38.9838953,28.3155925 C39.1225273,28.3155925 39.2750225,28.3248347 39.4413809,28.3433189 C39.6077393,28.3618032 39.7325081,28.3802875 39.8156873,28.3987717 L39.8156873,28.3987717 L39.8156873,29.9653135 C39.7047817,29.9837977 39.5569076,29.9976609 39.3720649,30.0069031 C39.1872222,30.0161452 38.9931374,30.0207663 38.7898105,30.0207663 Z M45.7352742,31.4625392 L45.7352742,25.8340795 C45.8646641,25.8155953 46.0125382,25.7994215 46.1788966,25.7855583 C46.345255,25.7716951 46.5023713,25.7647635 46.6502455,25.7647635 C47.1308364,25.7647635 47.4589322,25.9033955 47.6345327,26.1806596 C47.8101333,26.4579236 47.8979336,26.9292724 47.8979336,27.5947061 L47.8979336,27.5947061 L47.8979336,31.4625392 L49.9635505,31.4625392 L49.9635505,27.3451685 C49.9635505,26.8460932 49.9127188,26.3932287 49.8110553,25.9865748 C49.7093918,25.5799209 49.5384124,25.2287198 49.2981169,24.9329715 C49.0578214,24.6372232 48.7320362,24.4084804 48.3207612,24.246743 C47.9094862,24.0850057 47.3942373,24.004137 46.7750143,24.004137 C46.1650334,24.004137 45.582779,24.0480371 45.0282509,24.1358374 C44.4737229,24.2236377 44.0208583,24.3183696 43.6696572,24.420033 L43.6696572,24.420033 L43.6696572,31.4625392 L45.7352742,31.4625392 Z M54.4829541,31.6150344 C55.2315669,31.6150344 55.8692742,31.5711343 56.3960758,31.483334 C56.9228775,31.3955337 57.3341524,31.3192861 57.6299007,31.2545912 L57.6299007,31.2545912 L57.6299007,26.9569988 C57.6299007,26.5041343 57.579069,26.0928593 57.4774055,25.7231739 C57.375742,25.3534886 57.202452,25.039256 56.9575355,24.7804763 C56.7126189,24.5216965 56.3868337,24.3229906 55.9801798,24.1843586 C55.5735259,24.0457266 55.0652085,23.9764106 54.4552277,23.9764106 C54.2149322,23.9764106 53.9769472,23.9879633 53.7412728,24.0110686 C53.5055984,24.0341739 53.2814767,24.0619003 53.0689076,24.0942478 C52.8563385,24.1265953 52.6599431,24.1635638 52.4797215,24.2051534 C52.2994999,24.246743 52.1493152,24.2860221 52.0291675,24.3229906 L52.0291675,24.3229906 L52.2925683,25.9865748 C52.5421059,25.8941534 52.8378542,25.8225269 53.1798132,25.7716951 C53.5217721,25.7208634 53.8683522,25.6954475 54.2195533,25.6954475 C54.7463549,25.6954475 55.1160403,25.8017321 55.3286093,26.0143012 C55.5411784,26.2268702 55.647463,26.5087553 55.647463,26.8599564 L55.647463,26.8599564 L55.647463,27.0540412 C55.5180731,27.0170727 55.3494041,26.9870358 55.1414561,26.9639304 C54.9335081,26.9408251 54.6955232,26.9292724 54.4275013,26.9292724 C54.0300895,26.9292724 53.6465409,26.9685515 53.2768556,27.0471096 C52.9071702,27.1256678 52.5790745,27.2527471 52.2925683,27.4283477 C52.0060622,27.6039482 51.7773193,27.8396226 51.6063399,28.1353709 C51.4353604,28.4311192 51.3498706,28.7915624 51.3498706,29.2167006 C51.3498706,29.660323 51.4238077,30.0346295 51.5716819,30.3396199 C51.719556,30.6446103 51.9321251,30.8918374 52.2093891,31.0813012 C52.4866531,31.2707649 52.8170594,31.4070864 53.200608,31.4902656 C53.5841565,31.5734448 54.0116052,31.6150344 54.4829541,31.6150344 Z M54.6215861,30.0207663 C54.2426586,30.0207663 53.9445998,29.9583819 53.7274096,29.8336131 C53.5102195,29.7088442 53.4016244,29.4847225 53.4016244,29.1612478 C53.4016244,28.9948894 53.4385929,28.8562574 53.51253,28.7453518 C53.5864671,28.6344462 53.6881306,28.5466459 53.8175204,28.4819509 C53.9469103,28.417256 54.097095,28.3733559 54.2680745,28.3502505 C54.4390539,28.3271452 54.6215861,28.3155925 54.8156709,28.3155925 C54.9543029,28.3155925 55.1067981,28.3248347 55.2731565,28.3433189 C55.439515,28.3618032 55.5642838,28.3802875 55.647463,28.3987717 L55.647463,28.3987717 L55.647463,29.9653135 C55.5365574,29.9837977 55.3886832,29.9976609 55.2038405,30.0069031 C55.0189979,30.0161452 54.824913,30.0207663 54.6215861,30.0207663 Z" id="banana" fill="#FFFFFF" fill-rule="nonzero" transform="translate(34.714029, 26.173728) rotate(-25.000000) translate(-34.714029, -26.173728) "></path>
                </g>
            </g>
        </g>
    </g>
</svg>